<svg xmlns="http://www.w3.org/2000/svg" width="1200" height="800" viewBox="0 0 1200 800">
  <rect width="1200" height="800" fill="#111111"/>
  <rect x="90" y="90" width="1020" height="620" rx="36" fill="#1c1c1c" stroke="#ffd500" stroke-width="6"/>
  <rect x="170" y="180" width="860" height="420" rx="24" fill="#0d0d0d" stroke="#ffd500" stroke-width="4"/>
  <path d="M450 290c-50 0-90 40-90 90 0 72 90 142 90 142s90-70 90-142c0-50-40-90-90-90z" fill="#ffd500"/>
  <path d="M590 290c-50 0-90 40-90 90 0 72 90 142 90 142s90-70 90-142c0-50-40-90-90-90z" fill="#ffd500"/>
  <path d="M500 430c-76 0-138 62-138 138 0 78 138 154 138 154s138-76 138-154c0-76-62-138-138-138z" fill="#fff066" opacity="0.95"/>
  <path d="M500 410c-92 0-166 74-166 166 0 92 166 182 166 182s166-90 166-182c0-92-74-166-166-166z" fill="none" stroke="#ffffff" stroke-width="6" opacity="0.8"/>
  <text x="600" y="660" text-anchor="middle" font-family="Arial, sans-serif" font-size="42" fill="#ffd500">Tinkercad Heart Design</text>
</svg>
